<svg width="41" height="39" viewBox="0 0 41 39" fill="none" xmlns="http://www.w3.org/2000/svg">
<path d="M20.7149 0.226098C9.2948 0.0989181 0.315506 8.71281 0.190752 19.915C0.0452054 32.9842 12.0373 38.7195 13.9407 38.7407C15.2096 38.7549 15.2165 38.1325 15.2234 37.5102L15.2581 34.3985C10.8031 35.5937 8.92747 33.0831 8.31382 31.209C8.31382 31.209 8.32075 30.5867 7.06571 29.3279C6.4382 28.6984 3.91427 27.4255 6.45206 27.4538C8.3554 27.475 9.59657 29.9785 9.59657 29.9785C11.4722 32.489 14.0169 31.895 15.2927 31.2867C15.3066 30.0421 16.5894 28.8115 16.5894 28.8115C11.5207 28.1326 7.73482 26.2232 7.81105 19.3774C7.83878 16.8881 8.49402 15.0281 9.77677 13.7975C9.77677 13.7975 8.5356 11.294 9.83915 8.19645C9.83915 8.19645 13.0114 8.23177 15.5215 10.7494C17.4387 9.52592 23.7831 9.59658 25.6726 10.8625C28.2381 8.40135 31.4104 8.43668 31.4104 8.43668C32.6307 12.8072 31.348 14.0378 31.348 14.0378C32.603 15.2966 33.2167 17.1707 33.189 19.6601C33.1127 26.5058 28.6508 28.3234 24.2027 28.8963C24.8302 29.5257 25.4508 30.7774 25.43 32.6445L25.3746 37.6232C25.3677 38.2456 25.3607 38.8679 26.6296 38.882C28.533 38.9032 40.6499 33.4364 40.7954 20.3672C40.9202 9.165 32.1349 0.353279 20.7149 0.226098Z" fill="white"/>
</svg>
