<svg width="33" height="19" viewBox="0 0 33 19" fill="none" xmlns="http://www.w3.org/2000/svg">
<path fill-rule="evenodd" clip-rule="evenodd" d="M31.3428 1.62277C31.5627 0.902428 31.3428 0.373108 30.2961 0.373108H26.835C25.9549 0.373108 25.5492 0.830361 25.3292 1.33457C25.3292 1.33457 23.5689 5.54855 21.0755 8.28575C20.2689 9.07814 19.9022 9.33032 19.4621 9.33032C19.2421 9.33032 18.912 9.07814 18.912 8.35786V1.62277C18.912 0.758359 18.6683 0.373108 17.9348 0.373108H12.4959C11.9459 0.373108 11.6152 0.774297 11.6152 1.15453C11.6152 1.97397 12.8618 2.16295 12.9903 4.46806V9.4744C12.9903 10.572 12.7885 10.771 12.3485 10.771C11.1752 10.771 8.32099 6.53821 6.6282 1.69477C6.29646 0.753377 5.96372 0.373108 5.07915 0.373108H1.61801C0.629108 0.373108 0.431316 0.830361 0.431316 1.33457C0.431316 2.23502 1.60472 6.7011 5.89489 12.6078C8.75497 16.6416 12.7846 18.8283 16.4514 18.8283C18.6516 18.8283 18.9238 18.3426 18.9238 17.5061V14.4573C18.9238 13.486 19.1322 13.2921 19.8289 13.2921C20.3422 13.2921 21.2222 13.5443 23.2756 15.4892C25.6225 17.7942 26.0094 18.8283 27.3293 18.8283H30.7906C31.7794 18.8283 32.2738 18.3426 31.9886 17.3841C31.6764 16.429 30.5561 15.0431 29.0694 13.4002C28.2626 12.4637 27.0525 11.4553 26.6857 10.9509C26.1724 10.3028 26.3191 10.0146 26.6857 9.43841C26.6857 9.43841 30.9028 3.60364 31.3428 1.62277Z" fill="white"/>
</svg>
