<svg width="31" height="31" viewBox="0 0 31 31" fill="none" xmlns="http://www.w3.org/2000/svg">
<path d="M15.75 0.600677C7.46323 0.600677 0.75 7.31487 0.75 15.6007C0.75 23.8865 7.46419 30.6007 15.75 30.6007C24.0368 30.6007 30.75 23.8865 30.75 15.6007C30.75 7.31487 24.0358 0.600677 15.75 0.600677ZM23.1174 10.8771L20.6555 22.4784C20.4735 23.301 19.9839 23.5004 19.3006 23.1133L15.5506 20.3494L13.7419 22.0913C13.5426 22.2907 13.3732 22.46 12.9861 22.46L13.2523 18.6433L20.2016 12.3645C20.5045 12.0984 20.1348 11.9475 19.7352 12.2136L11.1465 17.6204L7.44484 16.4649C6.64065 16.2113 6.62226 15.6607 7.61419 15.2736L22.0761 9.69648C22.7477 9.45455 23.3342 9.86003 23.1165 10.8762L23.1174 10.8771Z" fill="white"/>
</svg>
